<?xml version="1.0" encoding="UTF-8" standalone="no"?>
<!-- Created with Inkscape (http://www.inkscape.org/) -->

<svg
   width="85.240616mm"
   height="94.639923mm"
   viewBox="0 0 85.240616 94.639922"
   version="1.1"
   id="svg1"
   inkscape:version="1.4 (e7c3feb1, 2024-10-09)"
   sodipodi:docname="Logo.svg"
   xmlns:inkscape="http://www.inkscape.org/namespaces/inkscape"
   xmlns:sodipodi="http://sodipodi.sourceforge.net/DTD/sodipodi-0.dtd"
   xmlns="http://www.w3.org/2000/svg"
   xmlns:svg="http://www.w3.org/2000/svg">
  <sodipodi:namedview
     id="namedview1"
     pagecolor="#ffffff"
     bordercolor="#000000"
     borderopacity="0.25"
     inkscape:showpageshadow="2"
     inkscape:pageopacity="0.0"
     inkscape:pagecheckerboard="0"
     inkscape:deskcolor="#d1d1d1"
     inkscape:document-units="mm"
     inkscape:zoom="1.4293729"
     inkscape:cx="160.21012"
     inkscape:cy="200.78735"
     inkscape:window-width="1440"
     inkscape:window-height="747"
     inkscape:window-x="0"
     inkscape:window-y="31"
     inkscape:window-maximized="0"
     inkscape:current-layer="svg1">
    <inkscape:page
       x="0"
       y="0"
       width="85.240616"
       height="94.639923"
       id="page2"
       margin="0"
       bleed="0" />
  </sodipodi:namedview>
  <defs
     id="defs1" />
  <path
     style="fill:#3da3b0;fill-opacity:0.375626;stroke:none;stroke-width:0.264583;stroke-opacity:1"
     d="M 27.684756,94.362639 C 26.892973,94.161696 25.597326,93.775698 24.805541,93.504855 24.013758,93.234005 22.603035,92.52324 21.670601,91.92537 20.738167,91.327504 19.369561,90.248054 18.629256,89.526602 17.888951,88.805149 16.875681,87.622953 16.377543,86.899506 15.879408,86.176059 15.204877,85.005185 14.878588,84.297575 14.349986,83.151213 14.141876,82.94636 12.968965,82.417866 12.244963,82.091641 10.918893,81.195073 10.022144,80.425484 9.0826256,79.619197 7.9725486,78.368122 7.4026166,77.47323 6.8586256,76.619074 6.0274786,74.988502 5.5556218,73.849734 5.0837662,72.710966 4.5727039,71.165066 4.4199259,70.414396 4.2671416,69.663731 4.1320645,67.650834 4.119746,65.941294 4.097351,62.833043 4.097351,62.833043 3.2946126,61.598585 2.8531081,60.919633 2.2702421,59.872473 1.9993512,59.271562 1.7284604,58.67065 1.3611846,57.721461 1.1831814,57.162245 1.0051781,56.603037 0.6661409,55.100259 0.4297678,53.822748 0.1817609,52.48236 0,50.512679 0,49.165519 0,47.739241 0.1793778,45.891431 0.4610971,44.415858 0.7146998,43.087508 1.2619224,41.201977 1.6771461,40.225788 2.0923697,39.249594 2.9820379,37.63757 3.6541824,36.643509 4.3300871,35.643887 4.831961,34.662623 4.7771342,34.447922 4.7226112,34.23441 4.5673139,33.208065 4.4320285,32.167148 4.2563233,30.815168 4.2519724,29.554782 4.4167715,27.754662 c 0.1646684,-1.797994 0.436197,-3.102313 0.947775,-4.552845 0.3943409,-1.118115 1.1854809,-2.817594 1.7580899,-3.776623 0.57261,-0.959025 1.421797,-2.193997 1.887084,-2.744377 0.465288,-0.550375 1.3195736,-1.403716 1.8984126,-1.896308 0.578843,-0.49259 1.683173,-1.203491 2.454066,-1.579785 1.339079,-0.653629 1.440096,-0.76573 2.263596,-2.511896 0.474081,-1.005256 1.331505,-2.530234 1.905386,-3.388833 0.57388,-0.858607 1.772624,-2.215108 2.663875,-3.014449 0.891251,-0.799339 2.517442,-1.927616 3.613759,-2.507282 1.096318,-0.579664 2.591294,-1.19882703 3.32217,-1.37591603 0.730879,-0.177089 2.524851,-0.322464 3.986607,-0.323057 2.069158,-8.37e-4 3.033942,0.11902 4.356508,0.541228 0.934325,0.298268 2.372837,0.95744503 3.196695,1.46484003 0.823855,0.507394 1.911247,1.375622 2.416415,1.929395 0.505173,0.553773 1.074479,1.266331 1.265128,1.583456 0.346637,0.576601 0.346637,0.576601 1.819548,-1.049526 1.080114,-1.192475 2.016528,-1.928099 3.511386,-2.758473 1.405506,-0.78074 2.623031,-1.25071703 3.92104,-1.51355903 1.256851,-0.254509 2.545084,-0.335744 3.875867,-0.244411 1.096316,0.07523 2.591292,0.310884 3.322172,0.52365 0.730873,0.212767 2.050855,0.76834903 2.933284,1.23462703 0.882431,0.466279 2.078412,1.211212 2.657734,1.655405 0.57933,0.444195 1.588608,1.371285 2.242846,2.060198 0.654236,0.688918 1.63363,1.948804 2.176436,2.799754 0.542803,0.850945 1.207199,2.190981 1.476435,2.977856 0.457407,1.336841 0.585009,1.487652 1.945434,2.299223 0.800754,0.4777 2.027516,1.364988 2.726138,1.97175 0.698624,0.606763 1.807712,1.872879 2.464639,2.813584 0.656925,0.940706 1.544422,2.51015 1.972215,3.487656 0.427791,0.9775 0.972859,2.642182 1.211259,3.699291 0.238403,1.05711 0.49989,2.743433 0.581087,3.747394 0.08539,1.055892 0.03613,2.70542 -0.116847,3.912999 -0.264482,2.087614 -0.264482,2.087614 0.768288,3.813256 0.568026,0.949108 1.261013,2.231791 1.539971,2.850408 0.278957,0.618621 0.777029,2.073956 1.106826,3.234082 0.459496,1.616367 0.627896,2.808301 0.720589,5.100305 0.07317,1.809014 0.01808,3.672251 -0.139394,4.714939 -0.143197,0.948175 -0.462192,2.415893 -0.708874,3.261596 -0.246681,0.845708 -0.945831,2.464918 -1.553658,3.598247 -0.607832,1.133324 -1.339266,2.33977 -1.625404,2.680984 -0.500619,0.596968 -0.515783,0.729074 -0.401641,3.49981 0.09059,2.199287 0.02919,3.329793 -0.259981,4.786127 -0.208231,1.048691 -0.763564,2.768476 -1.234069,3.821748 -0.470508,1.053268 -1.40776,2.629604 -2.082787,3.502966 -0.675021,0.873357 -1.752507,2.032706 -2.39441,2.576326 -0.641897,0.543619 -1.77362,1.295329 -2.51494,1.67046 -0.741313,0.375138 -1.66629,0.760433 -2.055503,0.85621 -0.603836,0.148606 -0.824678,0.434965 -1.505286,1.951875 -0.438692,0.977745 -1.152349,2.280239 -1.585907,2.894421 -0.433553,0.614184 -1.32569,1.639539 -1.982529,2.27857 -0.656833,0.639029 -1.958318,1.605022 -2.892187,2.146648 -0.933872,0.541625 -2.445433,1.232972 -3.359029,1.536326 -1.23337,0.409533 -2.2884,0.55945 -4.097342,0.582213 -2.179522,0.02742 -2.669661,-0.05343 -4.651042,-0.767371 -1.410511,-0.508241 -2.737557,-1.194413 -3.654387,-1.889567 -0.791785,-0.600342 -1.971097,-1.679913 -2.620695,-2.399051 -1.181085,-1.307516 -1.181085,-1.307516 -2.436257,0.0681 -0.690346,0.75659 -1.897481,1.835588 -2.682517,2.397772 -0.803351,0.575299 -2.352526,1.347926 -3.543649,1.76734 -1.448897,0.510179 -2.744921,0.781207 -4.109607,0.859398 -1.306752,0.07487 -2.489148,-0.01161 -3.432911,-0.251129 z m 5.315474,-4.473621 c 0.691606,-0.08418 1.893916,-0.511439 2.781588,-0.988499 0.929961,-0.499783 2.041113,-1.367049 2.742286,-2.140383 0.648352,-0.715077 1.41388,-1.865737 1.701176,-2.557029 0.522353,-1.256893 0.522353,-1.256893 0.522353,-36.991181 0,-35.73429 0,-35.73429 -0.564563,-37.099139 C 39.872565,9.362117 39.250628,8.321701 38.801,7.800745 38.351365,7.27979 37.427559,6.473769 36.748087,6.009586 36.06862,5.545409 34.926448,4.994534 34.209929,4.785425 33.493409,4.576316 32.052057,4.405227 31.006928,4.405227 c -1.045132,0 -2.494252,0.173307 -3.22027,0.385129 -0.726017,0.211822 -1.95614,0.74225 -2.733609,1.178733 -0.882365,0.495378 -2.0578,1.496781 -3.127868,2.664773 -0.942862,1.029142 -1.928484,2.341591 -2.190276,2.91655 -0.475985,1.045389 -0.475985,1.045389 0.774539,1.665044 0.687787,0.340811 1.299518,0.619655 1.359399,0.619655 0.05987,0 0.60809,0.410593 1.218241,0.912431 0.615099,0.505913 1.245049,1.276294 1.41391,1.729115 0.167494,0.449174 0.304547,0.996361 0.304547,1.215971 0,0.21961 -0.291328,0.725707 -0.647397,1.124664 -0.412306,0.461971 -0.876336,0.725378 -1.277856,0.725378 -0.402713,0 -1.108922,-0.40253 -1.954969,-1.114307 -0.728482,-0.612871 -1.807531,-1.29544 -2.397886,-1.51682 -0.701781,-0.263166 -1.382745,-0.347086 -1.967009,-0.242401 -0.4915,0.08806 -1.451108,0.455601 -2.132465,0.816757 -0.765325,0.405669 -1.804332,1.299126 -2.718344,2.337554 -0.842687,0.957394 -1.7166504,2.246742 -2.0304394,2.995493 -0.303008,0.723023 -0.70807,1.838776 -0.900137,2.479452 -0.192067,0.640682 -0.436991,1.813214 -0.544278,2.605627 -0.107281,0.792419 -0.150297,2.22346 -0.09558,3.180095 0.09947,1.739338 0.09947,1.739338 2.5691234,1.737083 2.327832,-0.0022 2.556733,0.04394 3.98614,0.802492 0.998894,0.530072 1.94381,1.294647 2.768476,2.240081 0.688592,0.789431 1.566235,2.102343 1.950319,2.917576 0.384085,0.815234 1.012908,2.487029 1.397387,3.715106 0.384477,1.228074 1.01073,2.942231 1.391672,3.80924 0.380941,0.867003 1.111971,2.059826 1.624512,2.65071 0.512541,0.590882 1.433799,1.359309 2.047244,1.707607 0.613441,0.348293 2.073109,0.977015 3.243704,1.397155 1.170595,0.42014 2.747281,1.080058 3.503745,1.466484 0.756462,0.386422 1.836763,1.077687 2.400668,1.536139 0.5639,0.458454 1.386805,1.319606 1.828675,1.913679 0.441876,0.594071 0.863858,1.350008 0.937745,1.679862 0.07388,0.32985 0.0098,0.936842 -0.142595,1.348864 -0.152313,0.412022 -0.456048,0.856534 -0.674964,0.987803 -0.218909,0.131259 -0.753398,0.23867 -1.187752,0.23867 -0.493258,0 -0.935239,-0.177456 -1.177321,-0.47267 -0.213176,-0.259968 -0.572797,-0.771604 -0.799167,-1.136976 -0.226364,-0.365364 -0.924021,-1.028282 -1.550347,-1.47315 -0.626319,-0.444865 -1.836423,-1.097078 -2.689114,-1.449362 -0.85269,-0.352278 -2.143128,-0.826233 -2.867636,-1.053228 -0.724509,-0.226998 -1.916912,-0.751866 -2.649784,-1.166378 -0.732872,-0.414512 -1.967525,-1.436899 -2.743677,-2.271965 -0.776161,-0.835072 -1.741597,-2.189346 -2.145427,-3.009509 -0.403827,-0.820156 -1.105369,-2.66373 -1.558981,-4.096825 -0.453611,-1.433089 -1.071645,-3.163969 -1.373409,-3.846399 -0.301764,-0.682425 -0.962071,-1.724582 -1.46735,-2.315906 -0.505278,-0.591325 -1.288462,-1.289261 -1.740409,-1.550968 -0.534463,-0.309493 -1.269992,-0.475021 -2.10404,-0.473503 -1.0087104,0.0017 -1.5222874,0.156544 -2.4069524,0.725082 -0.618547,0.397516 -1.441527,1.127155 -1.828846,1.621422 -0.387318,0.494266 -0.9864952,1.535933 -1.3315031,2.314811 -0.3450078,0.778879 -0.8127513,2.142004 -1.0394304,3.029152 -0.2969215,1.162068 -0.4136408,2.445514 -0.4174975,4.590861 -0.00381,2.12689 0.1120698,3.474262 0.4055296,4.714945 0.2259854,0.955395 0.6963154,2.37474 1.0451774,3.154098 0.3488609,0.779359 1.083351,1.983539 1.632204,2.67595 0.997909,1.258932 0.997909,1.258932 1.003324,5.035007 0.003,2.076844 0.108259,4.278589 0.233939,4.892773 0.125688,0.614183 0.566277,1.898383 0.979084,2.85378 0.412807,0.955396 1.2033624,2.311963 1.7567894,3.0146 0.553427,0.702636 1.472969,1.623912 2.043426,2.04728 0.570458,0.423366 1.105833,0.769753 1.189718,0.769753 0.08389,0 0.209971,-0.623646 0.280183,-1.385886 0.09383,-1.018566 0.368548,-1.832599 1.036515,-3.071279 0.499869,-0.926957 1.284229,-2.074525 1.743023,-2.55015 0.458794,-0.475622 1.046237,-0.991932 1.305432,-1.147355 0.259192,-0.155423 0.781337,-0.282589 1.16032,-0.282589 0.436292,0 0.888483,0.22344 1.232689,0.609106 0.344162,0.385618 0.54363,0.892335 0.54363,1.381013 0,0.594529 -0.259415,1.067574 -1.128898,2.058558 -0.620891,0.70766 -1.385172,1.711421 -1.6984,2.230578 -0.458691,0.760259 -0.58929,1.326837 -0.671175,2.911748 -0.09272,1.794526 -0.04554,2.093263 0.535642,3.392395 0.350521,0.78352 1.235301,2.106631 1.966179,2.940252 0.730876,0.833619 2.04432,1.981371 2.918764,2.55056 0.874441,0.569193 2.21992,1.217832 2.989954,1.441424 0.770031,0.223589 1.948216,0.486107 2.618188,0.583371 0.66997,0.09726 1.566954,0.141601 1.993302,0.09851 0.426341,-0.04311 1.323328,-0.145041 1.993302,-0.226584 z m -5.639253,-8.112502 c -0.468132,-0.451168 -0.626314,-0.818634 -0.611066,-1.419518 0.01131,-0.445918 0.192678,-1.023837 0.403027,-1.284268 0.21035,-0.260431 0.76853,-0.603117 1.2404,-0.76152 0.487509,-0.163653 1.182786,-0.690879 1.610289,-1.221068 0.413791,-0.513179 0.858089,-1.359723 0.987325,-1.881204 0.129241,-0.521477 0.235538,-1.456646 0.236215,-2.078155 9.98e-4,-0.719996 -0.206405,-1.596894 -0.571041,-2.416745 -0.31475,-0.7077 -1.037323,-1.745877 -1.605714,-2.30705 -0.56839,-0.561179 -1.304853,-1.177929 -1.63658,-1.370562 -0.331727,-0.192627 -1.278548,-0.61856 -2.104043,-0.946516 -0.825494,-0.327953 -2.494902,-0.895272 -3.709793,-1.260706 -1.214891,-0.365439 -3.058695,-1.049432 -4.097344,-1.51999 C 16.376759,62.799128 15.053485,61.952561 14.2256,61.212715 13.461869,60.530196 12.492242,59.445873 12.070871,58.803103 11.649501,58.160331 10.998225,56.818008 10.623592,55.82016 10.24896,54.822318 9.8845396,53.458128 9.8137716,52.788636 c -0.07697,-0.728165 -0.02001,-1.511191 0.141784,-1.948802 0.1487364,-0.402357 0.5455664,-0.859238 0.8818274,-1.015297 0.336261,-0.156056 0.881593,-0.207757 1.211847,-0.114887 0.330256,0.09287 0.731781,0.406398 0.892282,0.696728 0.160507,0.290329 0.408231,1.071013 0.550513,1.73485 0.142274,0.663837 0.552657,1.859451 0.911942,2.656922 0.359285,0.797467 0.966655,1.849887 1.349708,2.338711 0.383055,0.488822 1.106369,1.156232 1.607368,1.483135 0.500998,0.326901 1.459063,0.82051 2.129034,1.096914 0.669972,0.276399 2.563609,0.906735 4.208083,1.400744 1.644474,0.494005 3.587947,1.19212 4.318823,1.55136 0.730879,0.359246 1.892321,1.07884 2.580989,1.599103 0.688667,0.520258 1.597152,1.373843 2.018865,1.896848 0.421709,0.523007 1.104072,1.718356 1.516356,2.656327 0.720589,1.639383 0.749611,1.816271 0.749611,4.569047 0,2.736527 -0.03234,2.937352 -0.729104,4.524295 -0.438138,0.997926 -1.101042,2.019864 -1.66109,2.560747 -0.512587,0.495049 -1.21727,1.067451 -1.565962,1.272003 -0.348694,0.20455 -1.151495,0.431758 -1.784003,0.504902 -0.99801,0.115413 -1.233509,0.05255 -1.781659,-0.475768 z m 4.531864,-36.023465 c -0.426348,-0.17623 -1.251764,-0.576137 -1.834263,-0.888702 -0.582497,-0.312568 -1.508112,-1.140598 -2.056919,-1.840069 -0.548807,-0.699466 -1.657816,-2.723466 -2.464465,-4.49777 -0.80665,-1.774308 -1.773295,-3.654339 -2.148102,-4.17784 -0.374807,-0.523507 -1.406623,-1.495262 -2.292924,-2.159456 -1.143825,-0.857188 -1.99857,-1.292962 -2.945445,-1.501688 -0.96246,-0.212162 -1.455184,-0.466691 -1.769144,-0.913906 -0.239338,-0.340916 -0.435159,-0.970782 -0.435159,-1.399706 0,-0.428923 0.159565,-1.035094 0.354567,-1.347048 0.195012,-0.311955 0.606074,-0.674328 0.913472,-0.805278 0.423032,-0.180213 1.001872,-0.0867 2.38104,0.384634 1.125496,0.384652 2.448599,1.083861 3.460719,1.828859 0.901222,0.663373 1.828447,1.446524 2.060498,1.740344 0.266428,0.337337 0.683441,0.53421 1.131578,0.53421 0.511212,0 0.987966,-0.274477 1.704856,-0.98152 0.569099,-0.561274 1.332554,-1.703442 1.783142,-2.667659 0.433373,-0.927384 0.967216,-2.356169 1.186314,-3.175081 0.278918,-1.042465 0.398301,-2.307442 0.398143,-4.218629 -1.96e-4,-2.317485 -0.07789,-2.925634 -0.514453,-4.027148 -0.318076,-0.80253 -0.463361,-1.524525 -0.380878,-1.89275 0.07334,-0.327416 0.366059,-0.766143 0.650483,-0.974954 0.284419,-0.208805 0.709167,-0.402871 0.943878,-0.431258 0.234717,-0.02837 0.597134,-0.03875 0.805379,-0.02306 0.20824,0.01568 0.6344,0.335668 0.947018,0.711001 0.312614,0.375339 0.720569,1.240777 0.906569,1.923202 0.18599,0.682425 0.395104,2.413304 0.464688,3.8464 0.08971,1.847708 0.02637,3.195695 -0.217847,4.634224 -0.189399,1.115731 -0.662359,2.84661 -1.051028,3.846399 -0.388664,0.99979 -1.155857,2.527934 -1.704862,3.395875 -0.613429,0.969784 -1.58484,2.057653 -2.520092,2.822233 -0.837041,0.684283 -1.521892,1.30286 -1.521892,1.374607 0,0.07175 0.451479,1.058461 1.003286,2.192696 0.551805,1.134234 1.251788,2.393142 1.555512,2.797582 0.303728,0.404434 0.980037,0.967377 1.502904,1.250978 0.666969,0.361766 1.385131,0.51564 2.40655,0.51564 1.09853,0 1.58299,0.115328 1.973712,0.469822 0.394356,0.35779 0.517831,0.718874 0.517831,1.51432 0,0.864709 -0.123643,1.168288 -0.718267,1.763576 -0.645102,0.645832 -0.870181,0.717963 -2.209745,0.708182 -0.820313,-0.0059 -1.840313,-0.155086 -2.266654,-0.331291 z m 26.213177,43.872451 c 0.748461,-0.21622 1.95883,-0.743671 2.689709,-1.172114 0.730874,-0.428437 1.991757,-1.513151 2.80196,-2.410462 1.179786,-1.306634 1.543624,-1.897579 1.827305,-2.967911 0.341467,-1.288332 0.336908,-1.377222 -0.126679,-2.469701 -0.270589,-0.637663 -1.209967,-1.920821 -2.148005,-2.934105 -1.510225,-1.63137 -1.664915,-1.887446 -1.643826,-2.721166 0.01601,-0.629694 0.178512,-1.061152 0.514815,-1.366284 0.270337,-0.245277 0.730023,-0.513022 1.021519,-0.594998 0.291489,-0.08196 0.851963,6e-6 1.245489,0.182181 0.393527,0.182161 1.363358,1.060258 2.155183,1.951309 0.791821,0.891057 1.688638,2.150535 1.99292,2.798837 0.304288,0.648306 0.688965,1.178737 0.854842,1.178737 0.165874,0 0.889676,-0.351196 1.608435,-0.780437 0.781889,-0.466937 1.90643,-1.48934 2.79948,-2.54521 0.82095,-0.970627 1.80774,-2.434062 2.192867,-3.252077 0.38513,-0.818019 0.815963,-2.157329 0.957407,-2.976236 0.141446,-0.818912 0.22501,-2.047278 0.185687,-2.729702 -0.07149,-1.240774 -0.07149,-1.240774 -2.175535,-1.302545 -1.157222,-0.03396 -2.32553,-0.11908 -2.596237,-0.189124 -0.270709,-0.07004 -0.694286,-0.370397 -0.941282,-0.66745 -0.263674,-0.317113 -0.449086,-0.87937 -0.449086,-1.361849 0,-0.490877 0.178361,-1.021587 0.442958,-1.318059 0.243625,-0.272972 0.617368,-0.508729 0.830537,-0.523915 0.213176,-0.01519 1.184909,-0.04502 2.159416,-0.06624 1.193614,-0.02602 1.999052,-0.176611 2.468121,-0.46146 0.382969,-0.232552 1.023562,-0.789007 1.423549,-1.236568 0.399984,-0.44756 1.012039,-1.316261 1.360119,-1.930443 0.348084,-0.614184 0.897319,-2.010054 1.220524,-3.101938 0.511686,-1.72864 0.587028,-2.38617 0.582907,-5.087173 -0.0046,-2.801547 -0.072,-3.330424 -0.699377,-5.461424 -0.382045,-1.297716 -1.053948,-3.028594 -1.493106,-3.846397 -0.439161,-0.817802 -1.205008,-2.07782 -1.701888,-2.800043 -0.903414,-1.313136 -0.903414,-1.313136 -0.537156,-3.013362 0.201444,-0.935127 0.366261,-2.542394 0.366261,-3.571703 0,-1.029303 -0.149413,-2.66728 -0.33202,-3.639945 -0.182621,-0.972661 -0.586289,-2.347912 -0.89705,-3.056121 -0.310767,-0.708203 -0.942669,-1.901824 -1.404237,-2.652495 -0.461563,-0.750666 -1.357281,-1.839445 -1.990466,-2.419508 -0.633194,-0.580061 -1.289953,-1.054658 -1.459468,-1.054658 -0.187477,0 -0.443625,0.558956 -0.653907,1.426892 -0.19014,0.784787 -0.670623,2.151992 -1.067737,3.03823 -0.444423,0.991812 -1.232957,2.165493 -2.050899,3.052641 -0.83775,0.908634 -1.985663,1.808166 -3.106033,2.433964 -1.357918,0.758487 -2.058037,0.999834 -2.967785,1.023049 -0.991772,0.02529 -1.259054,-0.06431 -1.600378,-0.536588 -0.225362,-0.311838 -0.409752,-0.952795 -0.409752,-1.424342 0,-0.471553 0.09871,-1.064038 0.219367,-1.316635 0.120657,-0.252597 0.743562,-0.651364 1.384239,-0.886143 0.640679,-0.234786 1.589586,-0.702152 2.108684,-1.038595 0.519096,-0.336439 1.393071,-1.186613 1.942156,-1.889278 0.54909,-0.702664 1.212047,-1.89175 1.473244,-2.642422 0.330287,-0.949225 0.477516,-1.931607 0.483482,-3.226008 0.0053,-1.132063 -0.13994,-2.347235 -0.370522,-3.101937 C 66.388266,12.284146 65.795053,11.096182 65.278525,10.326655 64.761989,9.557134 63.843581,8.469008 63.237612,7.908599 62.631643,7.348197 61.475214,6.500713 60.667776,6.025313 59.860335,5.549907 58.562157,4.992557 57.782934,4.786754 57.003708,4.580951 55.519011,4.412241 54.4836,4.411844 53.448188,4.411447 52.102709,4.559905 51.493646,4.741752 50.884583,4.9236 50.037431,5.272581 49.611083,5.517272 c -0.426344,0.24469 -1.171445,0.792514 -1.655778,1.217389 -0.484338,0.424881 -1.15579,1.107513 -1.492126,1.516971 -0.336341,0.409453 -0.861968,1.296819 -1.16807,1.971919 -0.556545,1.227461 -0.556545,1.227461 -0.556545,36.757747 0,30.656609 0.04475,35.672381 0.326194,36.566185 0.179415,0.569737 0.641051,1.527126 1.025873,2.127518 0.384822,0.600398 1.259599,1.521651 1.943954,2.04723 0.684354,0.525577 1.543273,1.104316 1.908715,1.286081 0.365437,0.18176 1.162759,0.4711 1.771823,0.642961 0.609067,0.171862 1.989993,0.324825 3.068723,0.339917 1.150645,0.01604 2.52382,-0.135059 3.322172,-0.365684 z M 51.063223,81.018496 C 50.447268,80.29946 49.631055,78.987341 49.249427,78.102677 48.8678,77.218009 48.438198,75.720435 48.294759,74.774739 c -0.151278,-0.997356 -0.198273,-2.404244 -0.11193,-3.350089 0.08187,-0.896854 0.449331,-2.44913 0.816561,-3.449511 0.455715,-1.241415 1.051254,-2.283058 1.875838,-3.280984 0.809286,-0.979413 1.711719,-1.74439 2.7335,-2.317132 1.014327,-0.568571 2.002233,-0.912242 2.948767,-1.025816 0.807946,-0.09694 1.89751,-0.05688 2.519863,0.09268 0.603049,0.144893 1.650245,0.495624 2.327102,0.779371 0.676855,0.283746 1.68544,0.904993 2.241298,1.380543 0.704225,0.60248 1.089226,1.158484 1.2698,1.833777 0.223846,0.837129 0.202254,1.077971 -0.158529,1.76805 -0.229719,0.439399 -0.576658,0.910889 -0.770975,1.047762 -0.194315,0.136874 -0.597362,0.180219 -0.895651,0.09633 -0.298292,-0.08389 -0.986455,-0.530627 -1.529255,-0.992753 -0.542802,-0.462129 -1.412509,-1.024124 -1.932676,-1.248876 -0.520173,-0.224756 -1.379711,-0.408644 -1.910088,-0.408644 -0.530378,0 -1.393587,0.169689 -1.918245,0.377097 -0.524652,0.207421 -1.265831,0.643665 -1.647055,0.969467 -0.381229,0.325801 -1.010979,1.260515 -1.399449,2.077144 -0.60428,1.270299 -0.706308,1.74055 -0.706308,3.255366 0,1.133939 0.159132,2.277888 0.442571,3.181441 0.274567,0.875283 0.785508,1.802381 1.345982,2.442237 0.663454,0.757439 0.935421,1.298819 1.023938,2.038251 0.101971,0.851806 0.0327,1.105313 -0.449998,1.646118 -0.409598,0.458927 -0.804118,0.639247 -1.39861,0.639247 -0.709935,0 -0.987845,-0.186507 -1.948,-1.307328 z M 61.963358,59.317531 c -0.33231,-0.05612 -0.805719,-0.389061 -1.052021,-0.739906 -0.246306,-0.350845 -0.447829,-0.994218 -0.447829,-1.429717 0,-0.503168 0.181656,-0.979495 0.498327,-1.306643 0.274077,-0.283154 1.135661,-0.695293 1.914635,-0.915869 0.778972,-0.220576 1.925122,-0.702264 2.546997,-1.07041 0.666915,-0.394813 1.993701,-1.664342 3.234726,-3.095137 1.48642,-1.71371 2.304537,-2.46968 2.787055,-2.575352 0.577904,-0.126555 0.773886,-0.02859 1.273502,0.6367 0.324764,0.432451 0.590485,1.062431 0.590485,1.399947 0,0.337521 -0.161956,0.964575 -0.359896,1.393457 -0.19794,0.42888 -0.870678,1.386381 -1.494976,2.127778 -0.624297,0.741403 -1.710283,1.845018 -2.413307,2.452489 -0.703028,0.607466 -2.098339,1.529707 -3.100696,2.049423 -1.002356,0.519717 -2.171293,0.996763 -2.597635,1.060097 -0.426348,0.06333 -1.047063,0.06926 -1.379367,0.01308 z M 48.420394,56.05351 c -0.362931,-0.424445 -0.61657,-1.005428 -0.627533,-1.437417 -0.01016,-0.398772 0.09733,-0.967348 0.238797,-1.263503 0.141464,-0.296154 0.679278,-0.85616 1.195161,-1.244463 0.515877,-0.388304 1.535948,-0.99089 2.266827,-1.339088 0.73088,-0.348192 1.677699,-0.780437 2.10404,-0.960538 0.426349,-0.180092 1.199591,-0.662195 1.718317,-1.071312 0.518731,-0.409118 1.238434,-1.259444 1.599341,-1.88962 0.360908,-0.630168 0.808563,-1.629627 0.994788,-2.221024 0.186234,-0.591392 0.338593,-1.451048 0.338593,-1.910345 0,-0.809894 -0.06751,-0.873034 -2.23828,-2.093588 -1.848414,-1.039304 -2.552782,-1.61242 -4.043838,-3.290313 -1.23188,-1.386245 -2.031688,-2.544298 -2.517291,-3.644808 -0.391461,-0.887154 -0.864032,-2.278568 -1.050162,-3.092032 -0.186129,-0.813468 -0.338418,-2.455097 -0.338418,-3.648069 0,-1.192973 0.110495,-2.760803 0.245555,-3.48407 0.135061,-0.723263 0.555274,-1.985046 0.933828,-2.803953 0.403234,-0.872308 1.37928,-2.269038 2.356815,-3.372614 1.232593,-1.391531 2.111839,-2.127938 3.365239,-2.818541 1.229424,-0.677394 2.083359,-0.969377 3.10069,-1.060215 1.243568,-0.111025 1.454029,-0.06317 1.841918,0.418857 0.275902,0.342864 0.437917,0.896785 0.437917,1.497183 0,0.573211 -0.160582,1.151794 -0.402965,1.451883 -0.221635,0.2744 -1.11136,0.739996 -1.977177,1.034653 -0.865815,0.294657 -1.987316,0.854207 -2.492226,1.243436 -0.504914,0.38923 -1.232664,1.109209 -1.617222,1.599953 -0.384561,0.490749 -0.960521,1.470069 -1.279909,2.176273 -0.434371,0.960432 -0.609098,1.793828 -0.69336,3.307092 -0.06705,1.204212 -0.002,2.538888 0.160205,3.297415 0.150072,0.700878 0.643651,1.916553 1.096869,2.701496 0.453211,0.784947 1.230112,1.857791 1.726443,2.384096 0.496328,0.526304 1.3365,1.280912 1.867046,1.676899 0.53055,0.395992 1.512793,0.953274 2.182767,1.23841 0.669969,0.285138 1.983013,0.578851 2.917867,0.65271 0.991563,0.07833 2.129723,0.01296 2.73177,-0.156897 0.567619,-0.160139 1.823415,-0.806378 2.790654,-1.436071 1.529171,-0.99553 1.828614,-1.109171 2.295138,-0.871002 0.295089,0.150644 0.702466,0.557667 0.905289,0.904492 0.257589,0.440481 0.32582,0.887053 0.226328,1.481269 -0.09085,0.542676 -0.436866,1.140338 -0.955623,1.650673 -0.447258,0.439996 -1.426048,1.121325 -2.175097,1.514068 -0.847109,0.444155 -2.075736,0.821092 -3.250354,0.997182 -1.888445,0.283105 -1.888445,0.283105 -2.347972,2.368698 -0.252734,1.147076 -0.811562,2.775695 -1.241841,3.619147 -0.430279,0.843459 -1.008347,1.812733 -1.284599,2.153946 -0.276257,0.341218 -0.950446,1.025959 -1.498201,1.52165 -0.547759,0.495696 -1.49425,1.178383 -2.103313,1.517088 -0.609064,0.338705 -1.506049,0.757918 -1.993302,0.931587 -0.487252,0.173657 -1.538889,0.803096 -2.336967,1.39873 -0.798078,0.595634 -1.701333,1.082972 -2.007237,1.082972 -0.323298,0 -0.811233,-0.298281 -1.165308,-0.712375 z"
     id="path1"
     inkscape:label="Brain" />
  <path
     id="text1"
     style="font-weight:bold;font-size:53.1714px;font-family:'Bodoni 72';-inkscape-font-specification:'Bodoni 72, Bold';text-align:start;letter-spacing:0px;writing-mode:lr-tb;direction:ltr;text-anchor:start;fill:#000000;stroke:#000000;stroke-width:0.132292"
     inkscape:label="SM"
     d="M 29.990318 27.979999 C 29.742185 27.979999 29.582774 28.139574 29.511878 28.458602 C 29.33464 29.38024 28.979933 29.841348 28.448219 29.841348 C 28.164638 29.841348 27.686406 29.699389 27.012901 29.415809 C 24.992388 28.565066 23.095845 28.139705 21.323465 28.139705 C 18.026838 28.139705 15.297355 29.150002 13.135051 31.170515 C 10.972748 33.155581 9.8917198 35.672 9.8917198 38.720494 C 9.8917198 40.151579 10.093895 41.470562 10.484197 42.684812 L 22.64008 42.684812 C 19.654051 41.009704 17.608102 39.63137 16.538035 38.561303 C 15.439159 37.42698 14.889674 36.13328 14.889674 34.679929 C 14.889674 33.013892 15.474526 31.702061 16.644297 30.744976 C 17.814068 29.787891 19.39179 29.309166 21.376855 29.309166 C 22.794759 29.309166 24.035198 29.628316 25.098626 30.266373 C 25.91392 30.762639 26.711493 31.578129 27.491341 32.712452 C 28.306635 33.811328 28.873545 34.927836 29.192573 36.06216 C 29.511602 37.196483 29.830942 37.763803 30.14997 37.763803 C 30.433551 37.763803 30.575019 37.604228 30.575019 37.285199 C 30.575019 37.107961 30.557595 36.966003 30.522147 36.85966 C 30.380357 35.583546 30.309623 34.024061 30.309623 32.180785 C 30.309623 31.649071 30.34499 30.97554 30.415885 30.160245 C 30.48678 29.344951 30.522147 28.84861 30.522147 28.671372 C 30.522147 28.210553 30.344794 27.979999 29.990318 27.979999 z M 35.201315 28.777499 C 34.598706 28.742052 34.297308 28.901627 34.297308 29.256103 C 34.297308 29.575131 34.580763 29.734706 35.147925 29.734706 C 37.345676 29.734706 38.604057 29.982876 38.923086 30.479142 C 39.277562 30.939961 39.454915 32.588558 39.454915 35.424365 L 39.454915 42.684812 L 41.103276 42.684812 L 41.103276 32.871643 C 42.827559 38.247349 43.185597 39.316485 44.273001 42.684812 L 51.564147 42.684812 C 50.252576 38.498501 48.829144 33.9083 47.271152 28.831078 C 46.987571 28.795631 46.792793 28.777499 46.68645 28.777499 L 36.636633 28.831078 L 35.201315 28.777499 z M 62.105881 28.777499 L 58.033185 42.684812 L 59.167341 42.684812 C 60.576259 37.928619 61.759413 34.277108 62.690582 31.861888 L 62.710798 42.684812 L 70.55347 42.684812 C 70.54677 38.074073 70.533295 34.756488 70.506819 34.041619 C 70.471371 33.084534 70.453947 32.464366 70.453947 32.180785 C 70.453947 31.152805 70.702035 30.461658 71.198301 30.107182 C 71.730015 29.752706 72.740309 29.610747 74.229108 29.681642 L 75.451901 29.734706 C 75.877272 29.770153 76.089993 29.610579 76.089993 29.256103 C 76.089993 28.937074 75.735286 28.777499 75.026334 28.777499 L 72.580747 28.777499 C 72.155376 28.777499 71.676625 28.795631 71.144911 28.831078 L 70.240904 28.831078 L 63.222412 28.777499 L 62.105881 28.777499 z M 19.814022 51.664933 C 23.194838 53.497619 25.214396 54.734834 25.84298 55.363418 C 26.693722 56.249608 27.119164 57.437096 27.119164 58.925895 C 27.119164 60.662828 26.463577 62.133718 25.152016 63.338936 C 23.840455 64.544155 22.227366 65.146707 20.313196 65.146707 C 18.150892 65.146707 16.130305 64.366964 14.251582 62.80727 C 12.51465 61.353918 11.398255 59.315708 10.901989 56.692585 C 10.618408 55.168339 10.299068 54.406212 9.9445918 54.406212 C 9.5901158 54.406212 9.4132805 54.690129 9.4132805 55.257291 C 9.4132805 55.469977 9.4486476 56.17874 9.5195428 57.383958 C 9.5549904 57.986568 9.5724147 58.802058 9.5724147 59.830038 C 9.5724147 61.106152 9.5016806 62.22266 9.3598902 63.179746 C 9.1826522 64.349516 9.0939754 65.164491 9.0939754 65.62531 C 9.0939754 66.121576 9.235962 66.369747 9.5195428 66.369747 C 9.6967808 66.369747 9.838249 66.17494 9.9445918 65.785016 C 10.26362 64.508903 10.724429 63.870603 11.327038 63.870603 C 11.539723 63.870603 11.787811 63.923967 12.071392 64.030309 C 15.864285 65.483661 18.841856 66.210556 21.00416 66.210556 C 24.54892 66.210556 27.455757 65.164511 29.724403 63.073103 C 32.028497 60.946247 33.180777 58.270253 33.180777 55.044521 C 33.180777 53.827014 33.008214 52.70398 32.683159 51.664933 L 19.814022 51.664933 z M 39.454915 51.664933 L 39.454915 60.786729 C 39.454915 62.133738 39.401605 63.020208 39.295263 63.445579 C 39.118025 64.119083 38.479863 64.526828 37.380987 64.668619 C 37.097406 64.704066 36.247042 64.721682 34.829138 64.721682 C 34.226529 64.721682 33.925131 64.863126 33.925131 65.146707 C 33.925131 65.465735 34.297263 65.62531 35.041662 65.62531 C 35.537929 65.62531 36.494913 65.590078 37.912817 65.519183 C 38.976245 65.448288 39.915804 65.430671 40.731099 65.466119 L 45.463138 65.572246 C 45.994852 65.572246 46.260883 65.448419 46.260883 65.200286 C 46.260883 64.774914 45.622721 64.579592 44.346607 64.61504 C 43.070494 64.650488 42.16682 64.438065 41.635106 63.977246 C 41.351525 63.76456 41.191596 63.51639 41.156148 63.232809 C 41.1207 62.913781 41.103276 61.956847 41.103276 60.361705 L 41.103276 51.664933 L 39.454915 51.664933 z M 47.173183 51.664933 C 47.264923 51.943351 47.678903 53.23694 47.749591 53.449005 L 51.152575 63.658349 C 51.471603 64.650881 51.826311 65.146707 52.216234 65.146707 C 52.57071 65.146707 53.031519 64.154541 53.59868 62.169475 L 56.585427 51.664933 L 55.403583 51.664933 L 54.927736 53.289815 C 54.772992 52.809846 54.572283 52.163144 54.412494 51.664933 L 47.173183 51.664933 z M 62.727385 51.664933 L 62.743972 60.680602 C 62.743972 62.63022 62.690663 63.693365 62.58432 63.870603 C 62.229844 64.473213 61.237493 64.75713 59.606903 64.721682 L 57.79889 64.668619 C 57.302624 64.668619 57.054536 64.827678 57.054536 65.146707 C 57.054536 65.465735 57.302624 65.62531 57.79889 65.62531 L 59.128464 65.62531 L 64.020156 65.62531 C 65.260822 65.589862 66.075819 65.572246 66.465743 65.572246 C 67.422828 65.572246 68.876506 65.589862 70.826124 65.62531 C 72.811189 65.660758 74.193615 65.678889 74.973462 65.678889 L 75.345639 65.678889 C 76.054591 65.678889 76.40878 65.501183 76.40878 65.146707 C 76.40878 64.792231 75.753193 64.633171 74.441632 64.668619 C 73.165519 64.704066 72.190592 64.633087 71.517088 64.455849 C 70.879031 64.243163 70.560209 63.498653 70.560209 62.222539 L 70.560209 51.664933 L 62.727385 51.664933 z "
     transform="scale(0.99693619,1.0030732)" />
  <path
     d="m 8.8202562,61.04009 q 0,0.970372 -0.7447044,1.658659 -0.733421,0.677004 -1.7714937,0.677004 -0.6093036,0 -1.4555586,-0.372352 -0.225668,-0.10155 -0.338502,-0.10155 -0.1354008,0 -0.169251,0.327218 -0.011283,0.169251 -0.1466842,0.169251 -0.112834,0 -0.112834,-0.135401 0,-0.09027 0.011283,-0.1354 0.090267,-0.688288 0.090267,-1.275025 0,-0.112834 -0.022567,-0.63187 -0.011283,-0.0677 -0.011283,-0.180534 0,-0.169251 0.1354008,-0.169251 0.112834,0 0.1579676,0.270801 0.2933684,2.008445 1.9068946,2.008445 0.6882873,0 1.0606395,-0.383635 0.3836356,-0.394919 0.3836356,-1.105773 0,-0.631871 -0.3723522,-1.071923 -0.3610688,-0.451336 -1.2524573,-0.891389 -1.071923,-0.53032 -1.4894088,-1.026789 -0.4174858,-0.49647 -0.4174858,-1.229891 0,-0.936522 0.5980202,-1.545825 0.6093036,-0.609304 1.5345424,-0.609304 0.3836355,0 1.0606395,0.259518 0.2369514,0.09027 0.3497854,0.09027 0.1241174,0 0.1579676,-0.04513 0.045134,-0.04513 0.078984,-0.236952 0.022567,-0.112834 0.1241174,-0.112834 0.112834,0 0.112834,0.135401 0,0.09027 -0.011283,0.135401 -0.03385,0.270802 -0.03385,0.654437 0,0.541603 0.056417,0.857538 l 0.011283,0.180535 q 0.011283,0.124117 -0.1015506,0.124117 -0.1241174,0 -0.169251,-0.259518 Q 7.9063008,56.402612 7.4436814,55.96256 6.981062,55.511224 6.4056087,55.511224 q -0.56417,0 -0.902672,0.361069 -0.3272186,0.361068 -0.3272186,0.981655 0,0.722138 0.4851862,1.162191 0.2708016,0.248234 1.1734735,0.69957 1.0606396,0.53032 1.523259,1.083207 0.4626194,0.541603 0.4626194,1.241174 z m 8.2594398,2.132562 q 0,0.09027 -0.191818,0.09027 -0.02257,0 -0.248235,-0.01128 -0.214385,-0.01128 -0.586737,-0.01128 -0.03385,0 -1.19604,0.02257 -0.146684,0 -0.146684,-0.07898 0,-0.09027 0.124117,-0.09027 h 0.09027 l 0.282085,-0.01128 q 0.169251,-0.01128 0.191818,-0.07898 0.03385,-0.0677 0.03385,-0.473903 v -2.798283 q 0,-0.654437 -0.180534,-0.925238 -0.169251,-0.282085 -0.586737,-0.282085 -0.293368,0 -0.552886,0.180534 -0.248235,0.169251 -0.349786,0.440053 -0.04513,0.169251 -0.04513,1.252457 v 2.132562 q 0,0.372353 0.01128,0.42877 0.03385,0.1354 0.203101,0.1354 h 0.327219 q 0.146684,0 0.146684,0.09027 0,0.07898 -0.169251,0.07898 h -0.07898 q -0.112834,-0.02257 -0.767271,-0.02257 -0.225668,0 -0.609304,0.01128 -0.372352,0.01128 -0.451336,0.01128 h -0.124117 q -0.135401,0 -0.135401,-0.09027 0,-0.05642 0.0677,-0.0677 0.0677,-0.01128 0.451336,-0.01128 0.180534,-0.01128 0.191817,-0.112834 l 0.01128,-0.157967 v -3.148069 q 0,-0.654437 -0.169251,-0.902672 -0.157968,-0.248234 -0.575454,-0.248234 -0.417485,0 -0.69957,0.259518 -0.270802,0.259518 -0.270802,0.654437 v 3.204485 q 0,0.338502 0.04513,0.406203 0.05642,0.05642 0.338502,0.05642 h 0.09027 q 0.0677,-0.01128 0.124117,-0.01128 0.124118,0 0.124118,0.09027 0,0.07898 -0.146685,0.07898 h -0.112834 q -0.270801,-0.03385 -0.846255,-0.02257 l -1.1057727,0.02257 q -0.1579676,0 -0.1579676,-0.09027 0,-0.07898 0.1466842,-0.07898 0.4287691,0 0.4964691,-0.03385 0.0677,-0.04513 0.07898,-0.146684 V 59.97945 q 0,-0.846255 -0.03385,-0.992939 -0.03385,-0.146684 -0.3272185,-0.146684 H 9.6326519 q -0.1015506,0.01128 -0.2143846,0.01128 -0.1466842,0 -0.1466842,-0.07898 0,-0.0677 0.045134,-0.07898 0.056417,-0.01128 0.3723522,-0.03385 0.2595182,-0.01128 0.6431541,-0.1354 0.394919,-0.124118 0.451336,-0.214385 0.124117,-0.124117 0.180534,-0.124117 0.05642,0 0.0677,0.09027 0.01128,0.09027 0.02257,0.63187 0.451336,-0.722137 1.387858,-0.722137 1.004223,0 1.218608,0.755987 0.440052,-0.755987 1.410424,-0.755987 0.834972,0 1.12834,0.59802 0.157968,0.315935 0.157968,1.049356 v 2.787 q 0,0.383635 0.03385,0.428769 0.04513,0.03385 0.361069,0.05642 l 0.203101,-0.01128 q 0.124118,-0.01128 0.124118,0.07898 z M 21.920264,62.7326 q 0,0.191817 -0.406202,0.406202 -0.394919,0.203101 -0.767271,0.203101 -0.778555,0 -0.812405,-0.801121 -0.428769,0.834971 -1.331441,0.834971 -0.485187,0 -0.801122,-0.282085 -0.315935,-0.293368 -0.315935,-0.744704 0,-0.925239 1.117057,-1.466842 0.383635,-0.180534 1.331441,-0.361069 v -0.282085 q 0,-0.992939 -0.101551,-1.308874 -0.180534,-0.575453 -0.812405,-0.575453 -0.394919,0 -0.66572,0.214384 -0.259518,0.214385 -0.259518,0.541603 0,0.09027 0.1354,0.09027 0.146685,0 0.259519,0.1354 0.112834,0.135401 0.112834,0.304652 0,0.49647 -0.49647,0.49647 -0.259518,0 -0.428769,-0.169251 -0.169251,-0.180535 -0.169251,-0.451336 0,-0.53032 0.417486,-0.913956 0.462619,-0.417485 1.286307,-0.417485 1.241174,0 1.523259,0.677004 0.101551,0.259518 0.101551,1.026789 v 2.109996 q 0,0.519036 0.01128,0.609303 0.05642,0.406203 0.327219,0.406203 0.315935,0 0.519036,-0.225668 0.112834,-0.124118 0.169251,-0.124118 0.05642,0 0.05642,0.0677 z m -1.985878,-1.196041 v -0.823688 q -0.846255,0.191818 -1.218607,0.507753 -0.361069,0.304652 -0.361069,0.823688 0,0.361069 0.203101,0.59802 0.214385,0.225668 0.53032,0.225668 0.485186,0 0.778554,-0.541603 0.0677,-0.124117 0.0677,-0.789838 z m 5.427307,-2.583898 q 0,0.259518 -0.157968,0.428769 -0.157967,0.169251 -0.406202,0.169251 -0.203101,0 -0.338502,-0.112834 -0.135401,-0.124117 -0.135401,-0.304652 0,-0.157967 0.101551,-0.270801 0.101551,-0.112834 0.101551,-0.157968 0,-0.169251 -0.248235,-0.169251 -0.315935,0 -0.541603,0.394919 -0.259519,0.462619 -0.259519,1.715077 v 2.234113 q 0,0.135401 0.09027,0.169251 0.10155,0.03385 0.586736,0.04513 0.124118,0.02257 0.124118,0.09027 0,0.07898 -0.146684,0.07898 -0.259519,0 -0.485187,-0.01128 -0.225668,-0.01128 -0.857538,-0.01128 -0.327219,0 -0.473903,0.01128 -0.146684,0.01128 -0.372352,0.01128 -0.180534,0 -0.180534,-0.07898 0,-0.07898 0.146684,-0.07898 h 0.157967 q 0.383636,0 0.451336,-0.09027 0.02257,-0.04513 0.02257,-0.417486 v -3.102935 q 0,-0.620587 -0.191818,-0.710854 -0.180534,-0.101551 -0.586736,-0.112834 -0.135401,0 -0.135401,-0.07898 0,-0.07898 0.112834,-0.07898 h 0.07898 q 0.169251,0 0.338502,0.02257 0.169251,0.01128 0.146684,0.01128 0.417486,0 0.925239,-0.236951 l 0.146684,-0.0677 0.09027,-0.03385 q 0.04513,0.270802 0.04513,0.541604 v 0.225668 q 0.361068,-0.789838 1.015506,-0.789838 0.361068,0 0.59802,0.225668 0.236951,0.214384 0.236951,0.541603 z m 3.430146,3.621971 q 0,0.101551 -0.282085,0.361069 -0.485186,0.440052 -1.150907,0.440052 -0.620587,0 -0.936522,-0.315935 -0.180534,-0.180534 -0.180534,-1.060639 v -3.362453 q -0.01128,-0.112834 -0.124117,-0.124118 h -0.42877 q -0.248234,0 -0.248234,-0.07898 0,-0.07898 0.124117,-0.09027 0.880105,-0.07898 1.376575,-0.857538 0.0677,-0.101551 0.169251,-0.101551 0.07898,0 0.07898,0.07898 v 0.04513 q -0.01128,0.05642 -0.01128,0.191817 0,0.473903 0.04513,0.609304 0.10155,0.02257 0.338502,0.02257 0.620587,0 0.823688,-0.05642 0.04513,-0.01128 0.07898,-0.01128 0.09027,0 0.09027,0.101551 0,0.169251 -0.913956,0.169251 -0.157967,0 -0.462619,-0.01128 v 2.087429 q 0,1.579675 0.07898,1.985878 0.07898,0.394919 0.519036,0.394919 0.372352,0 0.834972,-0.417486 0.04513,-0.05642 0.10155,-0.05642 0.07898,0 0.07898,0.05642 z m 10.313041,0.575453 q 0,0.112834 -0.236952,0.112834 h -0.124117 q -0.157968,0 -0.575453,-0.01128 -0.417486,-0.01128 -0.643154,-0.01128 -0.338502,0 -0.789838,0.01128 -0.462619,0 -0.609304,0 h -0.07898 q -0.236952,0 -0.236952,-0.101551 0,-0.112834 0.327219,-0.112834 0.575453,0 0.699571,-0.124117 0.05642,-0.05642 0.05642,-0.755988 v -5.844801 q 0,0.01128 -0.124118,0.394919 -0.451336,1.365292 -1.308874,4.107158 l -0.53032,1.79406 q -0.157968,0.53032 -0.225668,0.53032 -0.07898,0 -0.169251,-0.270802 -0.327219,-1.026789 -1.850478,-5.122663 L 32.23329,56.538013 q 0.01128,0.214385 0.01128,0.586737 v 3.667105 q 0,2.064862 0.03385,2.087429 0.07898,0.146684 0.541603,0.146684 0.372352,0 0.372352,0.101551 0,0.112834 -0.236951,0.112834 -0.146684,0 -0.270802,-0.01128 -0.157967,-0.01128 -0.282085,-0.01128 l -1.29759,0.03385 q -0.203102,0 -0.203102,-0.101551 0,-0.112834 0.643154,-0.124117 0.270802,0 0.315935,-0.09027 0.04513,-0.09027 0.04513,-0.586737 v -5.404748 q 0,-0.936523 -0.02257,-1.015506 -0.04513,-0.157968 -0.191818,-0.214385 -0.146684,-0.05642 -0.63187,-0.09027 -0.180534,-0.01128 -0.180534,-0.101551 0,-0.124117 0.327218,-0.124117 0.04513,0 0.191818,0.01128 h 0.586737 q 0.66572,0 0.936522,-0.01128 0.05642,0.146684 0.66572,1.771494 0.259519,0.677004 1.455559,3.94919 0.214385,-0.733421 0.440053,-1.444276 l 1.19604,-3.734805 Q 36.7805,55.612775 36.859483,55.39839 l 1.69251,-0.01128 q 0.372352,0 0.428769,0.03385 0.05642,0.03385 0.05642,0.10155 0,0.112834 -0.191817,0.112834 -0.315936,0 -0.42877,0.02257 -0.270801,0.04513 -0.372352,0.180535 -0.05642,0.07898 -0.05642,1.320157 v 5.246781 q 0,0.451336 0.09027,0.53032 0.146685,0.10155 0.733421,0.10155 h 0.0677 q 0.225668,0 0.225668,0.112834 z m 1.974587,-7.006991 q 0,0.507753 -0.507753,0.507753 -0.214384,0 -0.361069,-0.135401 -0.146684,-0.146684 -0.146684,-0.349785 0,-0.53032 0.507753,-0.53032 0.507753,0 0.507753,0.507753 z m 0.846255,7.029558 q 0,0.101551 -0.191818,0.101551 0.01128,0 -0.270801,-0.02257 -0.338502,-0.02257 -0.56417,-0.02257 l -1.173474,0.02257 q -0.05642,0.01128 -0.135401,0.01128 -0.124117,0 -0.124117,-0.07898 0,-0.112834 0.225668,-0.112834 0.428769,-0.01128 0.462619,-0.05642 0.04513,-0.05642 0.04513,-0.473903 l -0.01128,-3.41887 q -0.01128,-0.282085 -0.03385,-0.327219 -0.01128,-0.05642 -0.1354,-0.05642 l -0.327219,0.01128 q -0.04513,0.01128 -0.112834,0.01128 -0.124117,0 -0.124117,-0.09027 0,-0.07898 0.191817,-0.09027 0.755988,-0.03385 1.297591,-0.361069 l 0.112834,-0.0677 q 0.09027,0.169251 0.09027,0.620587 0,-0.02257 0,0.112834 -0.01128,0.135401 -0.01128,0.440053 v 3.080368 q 0,0.451336 0.01128,0.53032 0.02257,0.07898 0.124117,0.10155 0.169251,0.04513 0.49647,0.04513 0.157967,0 0.157967,0.09027 z m 3.892766,-1.365291 q 0,0.654437 -0.485186,1.117056 -0.473903,0.451336 -1.139623,0.451336 -0.383636,0 -0.936522,-0.270801 -0.146685,-0.07898 -0.259519,-0.07898 -0.157967,0 -0.236951,0.214385 -0.04513,0.1354 -0.124117,0.1354 -0.07898,0 -0.07898,-0.09027 0,-0.05642 0.01128,-0.135401 0.03385,-0.225668 0.03385,-0.66572 0,-0.03385 -0.01128,-0.270802 -0.01128,-0.236951 -0.01128,-0.315935 v -0.124117 q 0,-0.124118 0.07898,-0.124118 0.09027,0 0.101551,0.124118 0.0677,0.519036 0.293368,0.812404 0.451336,0.586737 1.207324,0.586737 0.406203,0 0.654437,-0.236951 0.248235,-0.236952 0.248235,-0.631871 0,-0.440052 -0.282085,-0.69957 -0.157967,-0.146685 -0.293368,-0.203102 -0.124118,-0.0677 -0.755988,-0.304651 -1.252457,-0.473903 -1.252457,-1.421709 0,-0.63187 0.428769,-1.060639 0.428769,-0.428769 1.060639,-0.428769 0.225668,0 0.677004,0.1354 0.112834,0.03385 0.203102,0.03385 0.236951,0 0.293368,-0.225668 0.03385,-0.112834 0.101551,-0.112834 0.07898,0 0.07898,0.09027 0,0.01128 -0.01128,0.0677 l -0.01128,0.473903 q -0.01128,0.270802 0.05642,0.868822 v 0.02257 q 0,0.09027 -0.09027,0.09027 -0.0677,0 -0.169251,-0.338502 -0.124117,-0.406203 -0.440052,-0.654437 -0.304652,-0.248235 -0.710854,-0.248235 -0.383636,0 -0.631871,0.236951 -0.248235,0.236952 -0.248235,0.59802 0,0.56417 0.755988,0.857539 1.173474,0.462619 1.489409,0.767271 0.406202,0.394919 0.406202,0.959089 z m 4.084584,0 q 0,0.654437 -0.485187,1.117056 -0.473902,0.451336 -1.139623,0.451336 -0.383636,0 -0.936522,-0.270801 -0.146684,-0.07898 -0.259518,-0.07898 -0.157968,0 -0.236952,0.214385 -0.04513,0.1354 -0.124117,0.1354 -0.07898,0 -0.07898,-0.09027 0,-0.05642 0.01128,-0.135401 0.03385,-0.225668 0.03385,-0.66572 0,-0.03385 -0.01128,-0.270802 -0.01128,-0.236951 -0.01128,-0.315935 v -0.124117 q 0,-0.124118 0.07898,-0.124118 0.09027,0 0.10155,0.124118 0.0677,0.519036 0.293369,0.812404 0.451336,0.586737 1.207323,0.586737 0.406203,0 0.654438,-0.236951 0.248234,-0.236952 0.248234,-0.631871 0,-0.440052 -0.282085,-0.69957 -0.157967,-0.146685 -0.293368,-0.203102 -0.124117,-0.0677 -0.755988,-0.304651 -1.252457,-0.473903 -1.252457,-1.421709 0,-0.63187 0.428769,-1.060639 0.428769,-0.428769 1.06064,-0.428769 0.225668,0 0.677004,0.1354 0.112834,0.03385 0.203101,0.03385 0.236951,0 0.293368,-0.225668 0.03385,-0.112834 0.101551,-0.112834 0.07898,0 0.07898,0.09027 0,0.01128 -0.01128,0.0677 l -0.01128,0.473903 q -0.01128,0.270802 0.05642,0.868822 v 0.02257 q 0,0.09027 -0.09027,0.09027 -0.0677,0 -0.169251,-0.338502 -0.124118,-0.406203 -0.440053,-0.654437 -0.304652,-0.248235 -0.710854,-0.248235 -0.383636,0 -0.631871,0.236951 -0.248234,0.236952 -0.248234,0.59802 0,0.56417 0.755987,0.857539 1.173474,0.462619 1.489409,0.767271 0.406203,0.394919 0.406203,0.959089 z m 2.177692,-5.664267 q 0,0.507753 -0.507753,0.507753 -0.214384,0 -0.361069,-0.135401 -0.146684,-0.146684 -0.146684,-0.349785 0,-0.53032 0.507753,-0.53032 0.507753,0 0.507753,0.507753 z m 0.846255,7.029558 q 0,0.101551 -0.191818,0.101551 0.01128,0 -0.270801,-0.02257 -0.338502,-0.02257 -0.56417,-0.02257 l -1.173474,0.02257 q -0.05642,0.01128 -0.135401,0.01128 -0.124117,0 -0.124117,-0.07898 0,-0.112834 0.225668,-0.112834 0.428769,-0.01128 0.462619,-0.05642 0.04513,-0.05642 0.04513,-0.473903 l -0.01128,-3.41887 q -0.01128,-0.282085 -0.03385,-0.327219 -0.01128,-0.05642 -0.1354,-0.05642 l -0.327219,0.01128 q -0.04513,0.01128 -0.112834,0.01128 -0.124117,0 -0.124117,-0.09027 0,-0.07898 0.191817,-0.09027 0.755988,-0.03385 1.297591,-0.361069 l 0.112834,-0.0677 q 0.09027,0.169251 0.09027,0.620587 0,-0.02257 0,0.112834 -0.01128,0.135401 -0.01128,0.440053 v 3.080368 q 0,0.451336 0.01128,0.53032 0.02257,0.07898 0.124117,0.10155 0.169251,0.04513 0.49647,0.04513 0.157967,0 0.157967,0.09027 z m 5.179074,-2.369514 q 0,1.09449 -0.665721,1.839194 -0.66572,0.733421 -1.658659,0.733421 -1.02679,0 -1.715077,-0.733421 -0.688288,-0.744704 -0.688288,-1.839194 0,-1.12834 0.665721,-1.873044 0.677004,-0.744704 1.681227,-0.744704 1.015505,0 1.692509,0.755987 0.688288,0.744705 0.688288,1.861761 z m -1.02679,-0.01128 q 0,-1.241174 -0.383635,-1.929461 -0.282085,-0.507753 -0.947806,-0.507753 -0.63187,0 -0.992939,0.654437 -0.349785,0.643154 -0.349785,1.79406 0,1.139624 0.372352,1.782777 0.383636,0.631871 1.06064,0.631871 0.519036,0 0.767271,-0.394919 0.473902,-0.744705 0.473902,-2.031012 z m 6.837736,2.380797 q 0,0.09027 -0.169251,0.09027 h -0.135401 q -0.203101,-0.02257 -0.552886,-0.02257 -1.105774,0 -1.308875,0.02257 h -0.07898 q -0.146684,0 -0.146684,-0.07898 0,-0.05642 0.05642,-0.0677 0.0677,-0.01128 0.440053,-0.02257 0.214384,-0.01128 0.248235,-0.05642 0.03385,-0.05642 0.03385,-0.372352 v -2.166412 q 0,-1.229891 -0.09027,-1.466842 -0.191818,-0.507753 -0.767272,-0.507753 -0.56417,0 -0.947805,0.496469 -0.112834,0.146684 -0.112834,0.406203 l 0.01128,3.52042 q 0,0.135401 0.236952,0.146684 l 0.338502,0.01128 q 0.112834,0 0.112834,0.07898 0,0.07898 -0.135401,0.07898 H 60.76897 q -0.248234,-0.02257 -0.789838,-0.02257 -0.124117,0 -0.541603,0.01128 -0.406202,0.01128 -0.473903,0.01128 h -0.0677 q -0.169251,0 -0.169251,-0.07898 0,-0.07898 0.203101,-0.101551 0.146684,0 0.282085,0 0.169251,0 0.203101,-0.07898 l 0.03385,-0.169251 v -2.459781 q 0,-1.286307 -0.02257,-1.421708 -0.02257,-0.135401 -0.282085,-0.135401 -0.07898,0 -0.270802,0.02257 h -0.05642 q -0.225668,0 -0.225668,-0.07898 0,-0.101551 0.236952,-0.101551 0.338502,-0.01128 0.733421,-0.124117 0.394919,-0.112834 0.552886,-0.259518 0.101551,-0.09027 0.157968,-0.09027 0.07898,0 0.07898,0.214384 v 0.541603 q 0.586736,-0.755987 1.511975,-0.755987 0.812405,0 1.173474,0.59802 0.203101,0.338502 0.203101,1.286307 v 2.572615 q 0,0.361069 0.03385,0.394919 0.0677,0.0677 0.327219,0.0677 0.03385,0 0.124117,-0.01128 h 0.07898 q 0.112834,0 0.112834,0.07898 z"
     id="text2"
     style="font-size:11.2834px;font-family:'Bodoni 72';-inkscape-font-specification:'Bodoni 72, Normal';letter-spacing:0px;stroke:#000000;stroke-width:0.132291"
     inkscape:label="Smart Mission"
     transform="scale(1.2535798,0.79771547)"
     aria-label="Smart Mission" />
  <g
     inkscape:label="Logo"
     inkscape:groupmode="layer"
     id="layer1"
     transform="translate(-30.240417,-50.913842)" />
</svg>
