<?xml version='1.0' encoding='utf-8'?>
<svg xmlns:xlink="http://www.w3.org/1999/xlink" xmlns="http://www.w3.org/2000/svg" viewBox="0 0 768 768"> <defs> <clipPath id="f"> <path d="m57.5 0.5h397a57 57 0 0 1 57 57v397a57 57 0 0 1-57 57h-397a57 57 0 0 1-57-57v-397a57 57 0 0 1 57-57"/> </clipPath> <clipPath id="g"> <path d="m57 0h398a57 57 0 0 1 57 57v398a57 57 0 0 1-57 57h-398a57 57 0 0 1-57-57v-398a57 57 0 0 1 57-57"/> </clipPath> <filter id="e"> <feGaussianBlur stdDeviation="5.12"/> </filter> <filter id="d"> <feGaussianBlur stdDeviation="17.92"/> </filter> <linearGradient id="a"> <stop stop-color="#dbe3db" offset="0"/> <stop stop-color="#dbe3db" stop-opacity="0" offset="1"/> </linearGradient> <linearGradient id="c" x1="342.19" x2="358.08" y1="705.76" y2="523.41" gradientTransform="matrix(1.1571 0 0 1.3167 -91.204 -253.99)" gradientUnits="userSpaceOnUse" xlink:href="#a"/> <linearGradient id="b" x1="405.26" x2="405.75" y1="118.06" y2="360.92" gradientTransform="matrix(.95303 0 0 .86647 11.575 -4.5016)" gradientUnits="userSpaceOnUse" xlink:href="#a"/> </defs>&gt; <g transform="translate(90,90)"> <path d="m95 56h398a57 57 0 0 1 57 57v398a57 57 0 0 1-57 57h-398a57 57 0 0 1-57-57v-398a57 57 0 0 1 57-57" filter="url(#d)" stroke="#a8a8a8" stroke-width="5"/> </g> <g transform="translate(128,128)" clip-path="url(#f)"> <path d="m57 0h398a57 57 0 0 1 57 57v398a57 57 0 0 1-57 57h-398a57 57 0 0 1-57-57v-398a57 57 0 0 1 57-57" fill="#00f"/> <g transform="matrix(1.024 0 0 1.024 -256 -2.4e-6)"> <g transform="scale(16.667)"> <path d="m0 0h60v30h-60z" fill="#006"/> <g font-size="12"> <path d="m0 0v3.3541l53.292 26.646h6.7082v-3.3541l-53.292-26.646h-6.7082zm60 0v3.354l-53.292 26.646h-6.7082v-3.3542l53.292-26.646h6.7082z" fill="#fff"/> <path d="m25 0v30h10v-30h-10zm-25 10v10h60v-10h-60z" fill="#fff"/> <path d="m0 12v6h60v-6h-60zm27-12v30h6v-30h-6z" fill="#c00"/> <path d="m0 30 20-10h4.4721l-20 10h-4.4721zm0-30 20 10h-4.4721l-15.528-7.7639v-2.2361zm35.528 10 20-10h4.4721l-20 10h-4.4721zm24.472 20-20-10h4.4721l15.528 7.7639v2.2361z" fill="#c00"/> </g> </g> </g> </g> <g transform="translate(0,38)"> <path d="m214.21 111.21c-45.245 0.18809-68.716 7.7308-64.094 83.553l2.8252 46.345c47.474 5.5124 56.664 18.445 104.36 21.914 68.073 4.9513 67.937 5.4209 130.56-14.384s5.8248-65.247 207.32-57.82c4.6033 0.16968 17.314-3.0527 27.462-12.15 5.5817-46.524-2.7842-69.143-66.934-68.876z" fill="url(#b)"/> <path d="m531.03 495.17c-31.605 19.022-27.601 31.26-37.913 32.573-94.704 12.053-145.98-0.72701-165.8-12.061-59.588-34.078-68.468-13.014-100.22-16.574-20.115-2.2551-59.245 12.984-73.388 44.344 3.4722 27.608 18.111 32.098 44.281 31.986l356.06-1.5268c69.692-0.29885 56.335-8.4926 65.543-56.039-14.772-21.671-13.157 9.109-44.224-30.717z" fill="url(#c)"/> <path transform="translate(128,90)" d="m57 0h398a57 57 0 0 1 57 57v398a57 57 0 0 1-57 57h-398a57 57 0 0 1-57-57v-398a57 57 0 0 1 57-57" clip-path="url(#g)" fill="none" filter="url(#e)" stroke="#000" stroke-width="20"/> </g> </svg>